# xmcd CD database file
#
# Track frame offsets:
#	150
#	24178
#	50730
#	69603
#	92322
#	123231
#	145072
#	180115
#	202180
#	223276
#	249921
#
# Disc length: 4196 seconds
#
# Revision: 0
# Processed by: cddbd v1.5.1PL0 Copyright (c) Steve Scherf et al.
# Submitted via: CDex 1.51
#
DISCID=9510620b
DTITLE=Rus Nerwich - Beyond The Walls
DYEAR=2005
DGENRE=Jazz
TTITLE0=Dos Elnte Kind - The Lonely Child
TTITLE1=Ziamele - Little Seed
TTITLE2=Di Nakht - The Night
TTITLE3=Yisrolik
TTITLE4=Shtiler Shtiler - Hush, Hush
TTITLE5=Moments of Confidence
TTITLE6=Treblinka
TTITLE7=My Mother Longed To Be There on My Wedding Day
TTITLE8=Let Salvation Come
TTITLE9=Niggun for Remembrance
TTITLE10=The Making of Beyond the Walls
EXTD=YEAR: 2005
EXTT0=
EXTT1=
EXTT2=
EXTT3=
EXTT4=
EXTT5=
EXTT6=
EXTT7=
EXTT8=
EXTT9=
EXTT10=
PLAYORDER=
